<svg width="261" height="97" viewBox="0 0 261 97" fill="none" xmlns="http://www.w3.org/2000/svg">
<rect width="261" height="97" rx="20" fill="url(#paint0_linear_32_13)" fill-opacity="0.8"/>
<path d="M106.28 60.84C105.987 60.92 105.52 61 104.88 61.08C104.267 61.16 103.653 61.2 103.04 61.2C102.427 61.2 101.88 61.1467 101.4 61.04C100.947 60.96 100.56 60.8 100.24 60.56C99.92 60.32 99.68 59.9867 99.52 59.56C99.36 59.1333 99.28 58.5733 99.28 57.88V51.64H91.6V60.84C91.3067 60.92 90.84 61 90.2 61.08C89.5867 61.16 88.9733 61.2 88.36 61.2C87.7467 61.2 87.2 61.1467 86.72 61.04C86.2667 60.96 85.88 60.8 85.56 60.56C85.24 60.32 85 59.9867 84.84 59.56C84.68 59.1333 84.6 58.5733 84.6 57.88V36.76C84.8933 36.7067 85.36 36.64 86 36.56C86.64 36.4533 87.2533 36.4 87.84 36.4C88.4533 36.4 88.9867 36.4533 89.44 36.56C89.92 36.64 90.32 36.8 90.64 37.04C90.96 37.28 91.2 37.6133 91.36 38.04C91.52 38.4667 91.6 39.0267 91.6 39.72V46.12H99.28V36.76C99.5733 36.7067 100.04 36.64 100.68 36.56C101.32 36.4533 101.933 36.4 102.52 36.4C103.133 36.4 103.667 36.4533 104.12 36.56C104.6 36.64 105 36.8 105.32 37.04C105.64 37.28 105.88 37.6133 106.04 38.04C106.2 38.4667 106.28 39.0267 106.28 39.72V60.84ZM131.075 51.28C131.075 52.9333 130.822 54.4133 130.315 55.72C129.808 57 129.088 58.08 128.155 58.96C127.248 59.84 126.155 60.5067 124.875 60.96C123.595 61.4133 122.168 61.64 120.595 61.64C119.022 61.64 117.595 61.4 116.315 60.92C115.035 60.44 113.928 59.76 112.995 58.88C112.088 57.9733 111.382 56.88 110.875 55.6C110.368 54.32 110.115 52.88 110.115 51.28C110.115 49.7067 110.368 48.28 110.875 47C111.382 45.72 112.088 44.64 112.995 43.76C113.928 42.8533 115.035 42.16 116.315 41.68C117.595 41.2 119.022 40.96 120.595 40.96C122.168 40.96 123.595 41.2133 124.875 41.72C126.155 42.2 127.248 42.8933 128.155 43.8C129.088 44.68 129.808 45.76 130.315 47.04C130.822 48.32 131.075 49.7333 131.075 51.28ZM117.075 51.28C117.075 52.9067 117.382 54.16 117.995 55.04C118.635 55.8933 119.515 56.32 120.635 56.32C121.755 56.32 122.608 55.88 123.195 55C123.808 54.12 124.115 52.88 124.115 51.28C124.115 49.68 123.808 48.4533 123.195 47.6C122.582 46.72 121.715 46.28 120.595 46.28C119.475 46.28 118.608 46.72 117.995 47.6C117.382 48.4533 117.075 49.68 117.075 51.28ZM143.713 40.96C144.806 40.96 145.873 41.12 146.913 41.44C147.979 41.7333 148.899 42.1867 149.673 42.8C150.473 42.2667 151.366 41.8267 152.353 41.48C153.366 41.1333 154.579 40.96 155.993 40.96C157.006 40.96 157.993 41.0933 158.953 41.36C159.939 41.6267 160.806 42.0533 161.553 42.64C162.326 43.2 162.939 43.96 163.393 44.92C163.846 45.8533 164.073 47 164.073 48.36V60.96C163.806 61.04 163.379 61.12 162.793 61.2C162.233 61.28 161.646 61.32 161.033 61.32C160.446 61.32 159.913 61.28 159.433 61.2C158.979 61.12 158.593 60.96 158.273 60.72C157.953 60.48 157.699 60.16 157.513 59.76C157.353 59.3333 157.273 58.7867 157.273 58.12V48.56C157.273 47.76 157.046 47.1867 156.593 46.84C156.139 46.4667 155.526 46.28 154.753 46.28C154.379 46.28 153.979 46.3733 153.553 46.56C153.126 46.72 152.806 46.8933 152.593 47.08C152.619 47.1867 152.633 47.2933 152.633 47.4C152.633 47.48 152.633 47.56 152.633 47.64V60.96C152.339 61.04 151.899 61.12 151.313 61.2C150.753 61.28 150.179 61.32 149.593 61.32C149.006 61.32 148.473 61.28 147.993 61.2C147.539 61.12 147.153 60.96 146.833 60.72C146.513 60.48 146.259 60.16 146.073 59.76C145.913 59.3333 145.833 58.7867 145.833 58.12V48.56C145.833 47.76 145.579 47.1867 145.073 46.84C144.593 46.4667 144.006 46.28 143.313 46.28C142.833 46.28 142.419 46.36 142.073 46.52C141.726 46.6533 141.433 46.7867 141.193 46.92V60.96C140.926 61.04 140.499 61.12 139.913 61.2C139.353 61.28 138.766 61.32 138.153 61.32C137.566 61.32 137.033 61.28 136.553 61.2C136.099 61.12 135.713 60.96 135.393 60.72C135.073 60.48 134.819 60.16 134.633 59.76C134.473 59.3333 134.393 58.7867 134.393 58.12V46.04C134.393 45.32 134.539 44.7467 134.833 44.32C135.153 43.8933 135.579 43.4933 136.113 43.12C137.019 42.48 138.139 41.96 139.473 41.56C140.833 41.16 142.246 40.96 143.713 40.96ZM178.501 61.64C176.927 61.64 175.461 61.4267 174.101 61C172.767 60.5467 171.594 59.88 170.581 59C169.594 58.12 168.807 57.0133 168.221 55.68C167.661 54.3467 167.381 52.7867 167.381 51C167.381 49.24 167.661 47.7333 168.221 46.48C168.807 45.2 169.567 44.16 170.501 43.36C171.434 42.5333 172.501 41.9333 173.701 41.56C174.901 41.16 176.127 40.96 177.381 40.96C178.794 40.96 180.074 41.1733 181.221 41.6C182.394 42.0267 183.394 42.6133 184.221 43.36C185.074 44.1067 185.727 45 186.181 46.04C186.661 47.08 186.901 48.2133 186.901 49.44C186.901 50.3467 186.647 51.04 186.141 51.52C185.634 52 184.927 52.3067 184.021 52.44L174.141 53.92C174.434 54.8 175.034 55.4667 175.941 55.92C176.847 56.3467 177.887 56.56 179.061 56.56C180.154 56.56 181.181 56.4267 182.141 56.16C183.127 55.8667 183.927 55.5333 184.541 55.16C184.967 55.4267 185.327 55.8 185.621 56.28C185.914 56.76 186.061 57.2667 186.061 57.8C186.061 59 185.501 59.8933 184.381 60.48C183.527 60.9333 182.567 61.24 181.501 61.4C180.434 61.56 179.434 61.64 178.501 61.64ZM177.381 45.92C176.741 45.92 176.181 46.0267 175.701 46.24C175.247 46.4533 174.874 46.7333 174.581 47.08C174.287 47.4 174.061 47.7733 173.901 48.2C173.767 48.6 173.687 49.0133 173.661 49.44L180.501 48.32C180.421 47.7867 180.127 47.2533 179.621 46.72C179.114 46.1867 178.367 45.92 177.381 45.92Z" fill="white"/>
<defs>
<linearGradient id="paint0_linear_32_13" x1="29" y1="27.5" x2="239.5" y2="82" gradientUnits="userSpaceOnUse">
<stop offset="0.14" stop-color="#40916C"/>
<stop offset="1" stop-color="#2D6A4F"/>
</linearGradient>
</defs>
</svg>
