<svg width="390" height="96" viewBox="0 0 390 96" fill="none" xmlns="http://www.w3.org/2000/svg">
<path d="M122.168 51.576C120.291 50.936 118.584 50.296 117.048 49.656C115.512 48.9733 114.189 48.1627 113.08 47.224C111.971 46.2853 111.096 45.176 110.456 43.896C109.859 42.5733 109.56 40.9733 109.56 39.096C109.56 35.4693 110.947 32.568 113.72 30.392C116.536 28.216 120.461 27.128 125.496 27.128C127.331 27.128 129.037 27.256 130.616 27.512C132.195 27.768 133.539 28.1733 134.648 28.728C135.8 29.24 136.696 29.9227 137.336 30.776C137.976 31.5867 138.296 32.5467 138.296 33.656C138.296 34.7653 138.04 35.7253 137.528 36.536C137.016 37.304 136.397 37.9653 135.672 38.52C134.733 37.9227 133.475 37.4107 131.896 36.984C130.317 36.5147 128.589 36.28 126.712 36.28C124.792 36.28 123.384 36.5573 122.488 37.112C121.592 37.624 121.144 38.2853 121.144 39.096C121.144 39.736 121.421 40.2693 121.976 40.696C122.531 41.08 123.363 41.4427 124.472 41.784L127.864 42.872C131.875 44.152 134.947 45.7947 137.08 47.8C139.256 49.7627 140.344 52.4507 140.344 55.864C140.344 59.4907 138.915 62.4347 136.056 64.696C133.197 66.9147 128.995 68.024 123.448 68.024C121.485 68.024 119.651 67.8533 117.944 67.512C116.28 67.2133 114.808 66.7653 113.528 66.168C112.291 65.528 111.309 64.76 110.584 63.864C109.901 62.9253 109.56 61.8587 109.56 60.664C109.56 59.4267 109.923 58.3813 110.648 57.528C111.373 56.632 112.163 55.9493 113.016 55.48C114.211 56.4187 115.661 57.2293 117.368 57.912C119.117 58.5947 121.016 58.936 123.064 58.936C125.155 58.936 126.627 58.616 127.48 57.976C128.333 57.336 128.76 56.5893 128.76 55.736C128.76 54.8827 128.419 54.2427 127.736 53.816C127.053 53.3467 126.093 52.8987 124.856 52.472L122.168 51.576ZM156.458 56.312C156.458 57.4213 156.799 58.2107 157.482 58.68C158.207 59.1493 159.21 59.384 160.49 59.384C161.13 59.384 161.791 59.3413 162.474 59.256C163.157 59.128 163.754 58.9787 164.266 58.808C164.65 59.2773 164.97 59.8107 165.226 60.408C165.525 60.9627 165.674 61.6453 165.674 62.456C165.674 64.0773 165.055 65.4 163.818 66.424C162.623 67.448 160.49 67.96 157.418 67.96C153.663 67.96 150.762 67.1067 148.714 65.4C146.709 63.6933 145.706 60.92 145.706 57.08V29.688C146.175 29.56 146.837 29.432 147.69 29.304C148.586 29.1333 149.525 29.048 150.506 29.048C152.383 29.048 153.834 29.3893 154.858 30.072C155.925 30.712 156.458 32.0987 156.458 34.232V38.328H164.842C165.098 38.7973 165.333 39.3947 165.546 40.12C165.802 40.8027 165.93 41.5707 165.93 42.424C165.93 43.9173 165.589 45.0053 164.906 45.688C164.266 46.328 163.391 46.648 162.282 46.648H156.458V56.312ZM182.083 66.936C181.656 67.064 180.974 67.192 180.035 67.32C179.139 67.448 178.2 67.512 177.219 67.512C176.28 67.512 175.427 67.448 174.659 67.32C173.934 67.192 173.315 66.936 172.803 66.552C172.291 66.168 171.886 65.656 171.587 65.016C171.331 64.3333 171.203 63.4587 171.203 62.392V43.192C171.203 42.2107 171.374 41.3787 171.715 40.696C172.099 39.9707 172.632 39.3307 173.315 38.776C173.998 38.2213 174.83 37.7307 175.811 37.304C176.835 36.8347 177.923 36.4293 179.075 36.088C180.227 35.7467 181.422 35.4907 182.659 35.32C183.896 35.1067 185.134 35 186.371 35C188.419 35 190.04 35.4053 191.235 36.216C192.43 36.984 193.027 38.264 193.027 40.056C193.027 40.6533 192.942 41.2507 192.771 41.848C192.6 42.4027 192.387 42.9147 192.131 43.384C191.235 43.384 190.318 43.4267 189.379 43.512C188.44 43.5973 187.523 43.7253 186.627 43.896C185.731 44.0667 184.878 44.2587 184.067 44.472C183.299 44.6427 182.638 44.856 182.083 45.112V66.936ZM212.776 68.024C210.259 68.024 207.912 67.6827 205.736 67C203.603 66.2747 201.725 65.208 200.104 63.8C198.525 62.392 197.267 60.6213 196.328 58.488C195.432 56.3547 194.984 53.8587 194.984 51C194.984 48.184 195.432 45.7733 196.328 43.768C197.267 41.72 198.483 40.056 199.976 38.776C201.469 37.4533 203.176 36.4933 205.096 35.896C207.016 35.256 208.979 34.936 210.984 34.936C213.245 34.936 215.293 35.2773 217.128 35.96C219.005 36.6427 220.605 37.5813 221.928 38.776C223.293 39.9707 224.339 41.4 225.064 43.064C225.832 44.728 226.216 46.5413 226.216 48.504C226.216 49.9547 225.811 51.064 225 51.832C224.189 52.6 223.059 53.0907 221.608 53.304L205.8 55.672C206.269 57.08 207.229 58.1467 208.68 58.872C210.131 59.5547 211.795 59.896 213.672 59.896C215.421 59.896 217.064 59.6827 218.6 59.256C220.179 58.7867 221.459 58.2533 222.44 57.656C223.123 58.0827 223.699 58.68 224.168 59.448C224.637 60.216 224.872 61.0267 224.872 61.88C224.872 63.8 223.976 65.2293 222.184 66.168C220.819 66.8933 219.283 67.384 217.576 67.64C215.869 67.896 214.269 68.024 212.776 68.024ZM210.984 42.872C209.96 42.872 209.064 43.0427 208.296 43.384C207.571 43.7253 206.973 44.1733 206.504 44.728C206.035 45.24 205.672 45.8373 205.416 46.52C205.203 47.16 205.075 47.8213 205.032 48.504L215.976 46.712C215.848 45.8587 215.379 45.0053 214.568 44.152C213.757 43.2987 212.563 42.872 210.984 42.872ZM244.765 60.088C245.49 60.088 246.28 60.024 247.133 59.896C248.029 59.7253 248.69 59.512 249.117 59.256V54.136L244.509 54.52C243.314 54.6053 242.333 54.8613 241.565 55.288C240.797 55.7147 240.413 56.3547 240.413 57.208C240.413 58.0613 240.733 58.7653 241.373 59.32C242.056 59.832 243.186 60.088 244.765 60.088ZM244.253 34.936C246.557 34.936 248.648 35.1707 250.525 35.64C252.445 36.1093 254.066 36.8347 255.389 37.816C256.754 38.7547 257.8 39.9707 258.525 41.464C259.25 42.9147 259.613 44.6427 259.613 46.648V60.984C259.613 62.0933 259.293 63.0107 258.653 63.736C258.056 64.4187 257.33 65.016 256.477 65.528C253.704 67.192 249.8 68.024 244.765 68.024C242.504 68.024 240.456 67.8107 238.621 67.384C236.829 66.9573 235.272 66.3173 233.949 65.464C232.669 64.6107 231.666 63.5227 230.941 62.2C230.258 60.8773 229.917 59.3413 229.917 57.592C229.917 54.648 230.792 52.3867 232.541 50.808C234.29 49.2293 237 48.248 240.669 47.864L249.053 46.968V46.52C249.053 45.2827 248.498 44.408 247.389 43.896C246.322 43.3413 244.765 43.064 242.717 43.064C241.096 43.064 239.517 43.2347 237.981 43.576C236.445 43.9173 235.058 44.344 233.821 44.856C233.266 44.472 232.797 43.896 232.413 43.128C232.029 42.3173 231.837 41.4853 231.837 40.632C231.837 39.5227 232.093 38.648 232.605 38.008C233.16 37.3253 233.992 36.7493 235.101 36.28C236.338 35.8107 237.789 35.4693 239.453 35.256C241.16 35.0427 242.76 34.936 244.253 34.936ZM281.178 34.936C282.927 34.936 284.634 35.192 286.298 35.704C288.004 36.1733 289.476 36.8987 290.714 37.88C291.994 37.0267 293.423 36.3227 295.002 35.768C296.623 35.2133 298.564 34.936 300.826 34.936C302.447 34.936 304.026 35.1493 305.562 35.576C307.14 36.0027 308.527 36.6853 309.722 37.624C310.959 38.52 311.94 39.736 312.666 41.272C313.391 42.7653 313.754 44.6 313.754 46.776V66.936C313.327 67.064 312.644 67.192 311.706 67.32C310.81 67.448 309.871 67.512 308.89 67.512C307.951 67.512 307.098 67.448 306.33 67.32C305.604 67.192 304.986 66.936 304.474 66.552C303.962 66.168 303.556 65.656 303.258 65.016C303.002 64.3333 302.874 63.4587 302.874 62.392V47.096C302.874 45.816 302.511 44.8987 301.786 44.344C301.06 43.7467 300.079 43.448 298.842 43.448C298.244 43.448 297.604 43.5973 296.922 43.896C296.239 44.152 295.727 44.4293 295.386 44.728C295.428 44.8987 295.45 45.0693 295.45 45.24C295.45 45.368 295.45 45.496 295.45 45.624V66.936C294.98 67.064 294.276 67.192 293.338 67.32C292.442 67.448 291.524 67.512 290.586 67.512C289.647 67.512 288.794 67.448 288.026 67.32C287.3 67.192 286.682 66.936 286.17 66.552C285.658 66.168 285.252 65.656 284.954 65.016C284.698 64.3333 284.57 63.4587 284.57 62.392V47.096C284.57 45.816 284.164 44.8987 283.354 44.344C282.586 43.7467 281.647 43.448 280.538 43.448C279.77 43.448 279.108 43.576 278.554 43.832C277.999 44.0453 277.53 44.2587 277.146 44.472V66.936C276.719 67.064 276.036 67.192 275.098 67.32C274.202 67.448 273.263 67.512 272.282 67.512C271.343 67.512 270.49 67.448 269.722 67.32C268.996 67.192 268.378 66.936 267.866 66.552C267.354 66.168 266.948 65.656 266.65 65.016C266.394 64.3333 266.266 63.4587 266.266 62.392V43.064C266.266 41.912 266.5 40.9947 266.97 40.312C267.482 39.6293 268.164 38.9893 269.018 38.392C270.468 37.368 272.26 36.536 274.394 35.896C276.57 35.256 278.831 34.936 281.178 34.936ZM336.839 68.024C334.321 68.024 331.975 67.6827 329.799 67C327.665 66.2747 325.788 65.208 324.167 63.8C322.588 62.392 321.329 60.6213 320.391 58.488C319.495 56.3547 319.047 53.8587 319.047 51C319.047 48.184 319.495 45.7733 320.391 43.768C321.329 41.72 322.545 40.056 324.039 38.776C325.532 37.4533 327.239 36.4933 329.159 35.896C331.079 35.256 333.041 34.936 335.047 34.936C337.308 34.936 339.356 35.2773 341.191 35.96C343.068 36.6427 344.668 37.5813 345.991 38.776C347.356 39.9707 348.401 41.4 349.127 43.064C349.895 44.728 350.279 46.5413 350.279 48.504C350.279 49.9547 349.873 51.064 349.062 51.832C348.252 52.6 347.121 53.0907 345.671 53.304L329.863 55.672C330.332 57.08 331.292 58.1467 332.743 58.872C334.193 59.5547 335.857 59.896 337.735 59.896C339.484 59.896 341.127 59.6827 342.663 59.256C344.241 58.7867 345.521 58.2533 346.503 57.656C347.185 58.0827 347.761 58.68 348.231 59.448C348.7 60.216 348.935 61.0267 348.935 61.88C348.935 63.8 348.039 65.2293 346.247 66.168C344.881 66.8933 343.345 67.384 341.639 67.64C339.932 67.896 338.332 68.024 336.839 68.024ZM335.047 42.872C334.023 42.872 333.127 43.0427 332.359 43.384C331.633 43.7253 331.036 44.1733 330.567 44.728C330.097 45.24 329.735 45.8373 329.479 46.52C329.265 47.16 329.137 47.8213 329.095 48.504L340.039 46.712C339.911 45.8587 339.441 45.0053 338.631 44.152C337.82 43.2987 336.625 42.872 335.047 42.872ZM354.172 51.448C354.172 48.632 354.598 46.2 355.452 44.152C356.305 42.0613 357.478 40.3333 358.972 38.968C360.508 37.6027 362.278 36.6 364.284 35.96C366.332 35.2773 368.529 34.936 370.876 34.936C371.729 34.936 372.561 35.0213 373.372 35.192C374.182 35.32 374.844 35.4907 375.356 35.704V25.336C375.782 25.208 376.465 25.08 377.404 24.952C378.342 24.7813 379.302 24.696 380.284 24.696C381.222 24.696 382.054 24.76 382.78 24.888C383.548 25.016 384.188 25.272 384.7 25.656C385.212 26.04 385.596 26.5733 385.852 27.256C386.108 27.896 386.236 28.7493 386.236 29.816V60.152C386.236 62.1573 385.297 63.7573 383.42 64.952C382.182 65.7627 380.582 66.4667 378.62 67.064C376.657 67.704 374.396 68.024 371.836 68.024C369.062 68.024 366.566 67.64 364.348 66.872C362.172 66.104 360.316 64.9947 358.78 63.544C357.286 62.0933 356.134 60.3653 355.324 58.36C354.556 56.312 354.172 54.008 354.172 51.448ZM372.348 43.448C370.044 43.448 368.273 44.1093 367.036 45.432C365.798 46.7547 365.18 48.76 365.18 51.448C365.18 54.0933 365.756 56.0987 366.908 57.464C368.06 58.7867 369.724 59.448 371.9 59.448C372.668 59.448 373.35 59.3413 373.948 59.128C374.588 58.872 375.078 58.5947 375.42 58.296V44.216C374.566 43.704 373.542 43.448 372.348 43.448Z" fill="white"/>
<rect y="9" width="79" height="79" rx="20" fill="url(#paint0_linear_14_9)"/>
<path d="M58.4574 47.1292C59.1353 47.5119 59.1353 48.4882 58.4574 48.8708L27.7416 66.2105C27.075 66.5868 26.25 66.1052 26.25 65.3397L26.25 30.6603C26.25 29.8948 27.075 29.4132 27.7416 29.7895L58.4574 47.1292Z" fill="#D9D9D9"/>
<defs>
<linearGradient id="paint0_linear_14_9" x1="12" y1="14.5" x2="59.5" y2="88" gradientUnits="userSpaceOnUse">
<stop offset="0.175" stop-color="#473BF0"/>
<stop offset="1" stop-color="#29228A"/>
</linearGradient>
</defs>
</svg>
