<svg width="261" height="97" viewBox="0 0 261 97" fill="none" xmlns="http://www.w3.org/2000/svg">
<rect width="261" height="97" rx="20" fill="url(#paint0_linear_20_2)" fill-opacity="0.8"/>
<path d="M80.68 47C81.8 47 82.6533 46.7467 83.24 46.24C83.8533 45.7067 84.16 44.9067 84.16 43.84C84.16 42.8267 83.84 42.0533 83.2 41.52C82.5867 40.96 81.68 40.68 80.48 40.68C80.0533 40.68 79.6933 40.6933 79.4 40.72C79.1333 40.72 78.8533 40.7467 78.56 40.8V47H80.68ZM78.6 59.84C78.3067 59.92 77.84 60 77.2 60.08C76.5867 60.16 75.9733 60.2 75.36 60.2C74.7467 60.2 74.2 60.1467 73.72 60.04C73.2667 59.96 72.88 59.8 72.56 59.56C72.24 59.32 72 58.9867 71.84 58.56C71.68 58.1333 71.6 57.5733 71.6 56.88V38.04C71.6 37.48 71.7467 37.0533 72.04 36.76C72.36 36.44 72.7867 36.1867 73.32 36C74.2267 35.68 75.2533 35.4533 76.4 35.32C77.5733 35.16 78.7467 35.08 79.92 35.08C83.6 35.08 86.4133 35.8667 88.36 37.44C90.3067 39.0133 91.28 41.1467 91.28 43.84C91.28 45.1467 91.0667 46.3333 90.64 47.4C90.24 48.44 89.6267 49.3467 88.8 50.12C88 50.8667 86.9733 51.4533 85.72 51.88C84.4933 52.28 83.0667 52.48 81.44 52.48H78.6V59.84ZM100.341 59.96C100.074 60.04 99.6476 60.12 99.0609 60.2C98.5009 60.28 97.9143 60.32 97.3009 60.32C96.7143 60.32 96.1809 60.28 95.7009 60.2C95.2476 60.12 94.8609 59.96 94.5409 59.72C94.2209 59.48 93.9676 59.16 93.7809 58.76C93.6209 58.3333 93.5409 57.7867 93.5409 57.12V45.12C93.5409 44.5067 93.6476 43.9867 93.8609 43.56C94.1009 43.1067 94.4343 42.7067 94.8609 42.36C95.2876 42.0133 95.8076 41.7067 96.4209 41.44C97.0609 41.1467 97.7409 40.8933 98.4609 40.68C99.1809 40.4667 99.9276 40.3067 100.701 40.2C101.474 40.0667 102.248 40 103.021 40C104.301 40 105.314 40.2533 106.061 40.76C106.808 41.24 107.181 42.04 107.181 43.16C107.181 43.5333 107.128 43.9067 107.021 44.28C106.914 44.6267 106.781 44.9467 106.621 45.24C106.061 45.24 105.488 45.2667 104.901 45.32C104.314 45.3733 103.741 45.4533 103.181 45.56C102.621 45.6667 102.088 45.7867 101.581 45.92C101.101 46.0267 100.688 46.16 100.341 46.32V59.96ZM129.364 50.28C129.364 51.9333 129.111 53.4133 128.604 54.72C128.097 56 127.377 57.08 126.444 57.96C125.537 58.84 124.444 59.5067 123.164 59.96C121.884 60.4133 120.457 60.64 118.884 60.64C117.311 60.64 115.884 60.4 114.604 59.92C113.324 59.44 112.217 58.76 111.284 57.88C110.377 56.9733 109.671 55.88 109.164 54.6C108.657 53.32 108.404 51.88 108.404 50.28C108.404 48.7067 108.657 47.28 109.164 46C109.671 44.72 110.377 43.64 111.284 42.76C112.217 41.8533 113.324 41.16 114.604 40.68C115.884 40.2 117.311 39.96 118.884 39.96C120.457 39.96 121.884 40.2133 123.164 40.72C124.444 41.2 125.537 41.8933 126.444 42.8C127.377 43.68 128.097 44.76 128.604 46.04C129.111 47.32 129.364 48.7333 129.364 50.28ZM115.364 50.28C115.364 51.9067 115.671 53.16 116.284 54.04C116.924 54.8933 117.804 55.32 118.924 55.32C120.044 55.32 120.897 54.88 121.484 54C122.097 53.12 122.404 51.88 122.404 50.28C122.404 48.68 122.097 47.4533 121.484 46.6C120.871 45.72 120.004 45.28 118.884 45.28C117.764 45.28 116.897 45.72 116.284 46.6C115.671 47.4533 115.364 48.68 115.364 50.28ZM132.762 40.56C132.762 39.2 132.988 38.04 133.442 37.08C133.922 36.0933 134.562 35.2933 135.362 34.68C136.162 34.04 137.095 33.5733 138.162 33.28C139.255 32.9867 140.415 32.84 141.642 32.84C143.615 32.84 145.068 33.1067 146.002 33.64C146.935 34.1467 147.402 35.0267 147.402 36.28C147.402 36.8133 147.282 37.2933 147.042 37.72C146.828 38.1467 146.588 38.4667 146.322 38.68C145.815 38.5467 145.282 38.44 144.722 38.36C144.188 38.2533 143.562 38.2 142.842 38.2C141.695 38.2 140.802 38.4 140.162 38.8C139.522 39.1733 139.202 39.84 139.202 40.8V42.08H145.762C145.922 42.3733 146.068 42.7467 146.202 43.2C146.362 43.6267 146.442 44.1067 146.442 44.64C146.442 45.5733 146.228 46.2533 145.802 46.68C145.402 47.08 144.855 47.28 144.162 47.28H139.562V59.96C139.295 60.04 138.868 60.12 138.282 60.2C137.722 60.28 137.135 60.32 136.522 60.32C135.935 60.32 135.402 60.28 134.922 60.2C134.468 60.12 134.082 59.96 133.762 59.72C133.442 59.48 133.188 59.16 133.002 58.76C132.842 58.3333 132.762 57.7867 132.762 57.12V40.56ZM149.602 35.16C149.602 34.1467 149.935 33.2933 150.602 32.6C151.295 31.9067 152.202 31.56 153.322 31.56C154.442 31.56 155.335 31.9067 156.002 32.6C156.695 33.2933 157.042 34.1467 157.042 35.16C157.042 36.1733 156.695 37.0267 156.002 37.72C155.335 38.4133 154.442 38.76 153.322 38.76C152.202 38.76 151.295 38.4133 150.602 37.72C149.935 37.0267 149.602 36.1733 149.602 35.16ZM156.722 59.96C156.428 60.0133 155.988 60.08 155.402 60.16C154.842 60.2667 154.268 60.32 153.682 60.32C153.095 60.32 152.562 60.28 152.082 60.2C151.628 60.12 151.242 59.96 150.922 59.72C150.602 59.48 150.348 59.16 150.162 58.76C150.002 58.3333 149.922 57.7867 149.922 57.12V40.84C150.215 40.7867 150.642 40.72 151.202 40.64C151.788 40.5333 152.375 40.48 152.962 40.48C153.548 40.48 154.068 40.52 154.522 40.6C155.002 40.68 155.402 40.84 155.722 41.08C156.042 41.32 156.282 41.6533 156.442 42.08C156.628 42.48 156.722 43.0133 156.722 43.68V59.96ZM167.961 59.96C167.668 60.0133 167.228 60.08 166.641 60.16C166.081 60.2667 165.508 60.32 164.921 60.32C164.334 60.32 163.801 60.28 163.321 60.2C162.868 60.12 162.481 59.96 162.161 59.72C161.841 59.48 161.588 59.16 161.401 58.76C161.241 58.3333 161.161 57.7867 161.161 57.12V33.92C161.454 33.8667 161.881 33.8 162.441 33.72C163.028 33.6133 163.614 33.56 164.201 33.56C164.788 33.56 165.308 33.6 165.761 33.68C166.241 33.76 166.641 33.92 166.961 34.16C167.281 34.4 167.521 34.7333 167.681 35.16C167.868 35.56 167.961 36.0933 167.961 36.76V59.96ZM182.532 60.64C180.959 60.64 179.492 60.4267 178.132 60C176.799 59.5467 175.625 58.88 174.612 58C173.625 57.12 172.839 56.0133 172.252 54.68C171.692 53.3467 171.412 51.7867 171.412 50C171.412 48.24 171.692 46.7333 172.252 45.48C172.839 44.2 173.599 43.16 174.532 42.36C175.465 41.5333 176.532 40.9333 177.732 40.56C178.932 40.16 180.159 39.96 181.412 39.96C182.825 39.96 184.105 40.1733 185.252 40.6C186.425 41.0267 187.425 41.6133 188.252 42.36C189.105 43.1067 189.759 44 190.212 45.04C190.692 46.08 190.932 47.2133 190.932 48.44C190.932 49.3467 190.679 50.04 190.172 50.52C189.665 51 188.959 51.3067 188.052 51.44L178.172 52.92C178.465 53.8 179.065 54.4667 179.972 54.92C180.879 55.3467 181.919 55.56 183.092 55.56C184.185 55.56 185.212 55.4267 186.172 55.16C187.159 54.8667 187.959 54.5333 188.572 54.16C188.999 54.4267 189.359 54.8 189.652 55.28C189.945 55.76 190.092 56.2667 190.092 56.8C190.092 58 189.532 58.8933 188.412 59.48C187.559 59.9333 186.599 60.24 185.532 60.4C184.465 60.56 183.465 60.64 182.532 60.64ZM181.412 44.92C180.772 44.92 180.212 45.0267 179.732 45.24C179.279 45.4533 178.905 45.7333 178.612 46.08C178.319 46.4 178.092 46.7733 177.932 47.2C177.799 47.6 177.719 48.0133 177.692 48.44L184.532 47.32C184.452 46.7867 184.159 46.2533 183.652 45.72C183.145 45.1867 182.399 44.92 181.412 44.92Z" fill="white"/>
<defs>
<linearGradient id="paint0_linear_20_2" x1="29" y1="27.5" x2="239.5" y2="82" gradientUnits="userSpaceOnUse">
<stop offset="0.14" stop-color="#1D5CAA"/>
<stop offset="1" stop-color="#1D92FC"/>
</linearGradient>
</defs>
</svg>
