<svg width="1176" height="97" viewBox="0 0 1176 97" fill="none" xmlns="http://www.w3.org/2000/svg">
<rect width="1176" height="97" rx="20" fill="white" fill-opacity="0.21"/>
<path d="M132.168 51.576C130.291 50.936 128.584 50.296 127.048 49.656C125.512 48.9733 124.189 48.1627 123.08 47.224C121.971 46.2853 121.096 45.176 120.456 43.896C119.859 42.5733 119.56 40.9733 119.56 39.096C119.56 35.4693 120.947 32.568 123.72 30.392C126.536 28.216 130.461 27.128 135.496 27.128C137.331 27.128 139.037 27.256 140.616 27.512C142.195 27.768 143.539 28.1733 144.648 28.728C145.8 29.24 146.696 29.9227 147.336 30.776C147.976 31.5867 148.296 32.5467 148.296 33.656C148.296 34.7653 148.04 35.7253 147.528 36.536C147.016 37.304 146.397 37.9653 145.672 38.52C144.733 37.9227 143.475 37.4107 141.896 36.984C140.317 36.5147 138.589 36.28 136.712 36.28C134.792 36.28 133.384 36.5573 132.488 37.112C131.592 37.624 131.144 38.2853 131.144 39.096C131.144 39.736 131.421 40.2693 131.976 40.696C132.531 41.08 133.363 41.4427 134.472 41.784L137.864 42.872C141.875 44.152 144.947 45.7947 147.08 47.8C149.256 49.7627 150.344 52.4507 150.344 55.864C150.344 59.4907 148.915 62.4347 146.056 64.696C143.197 66.9147 138.995 68.024 133.448 68.024C131.485 68.024 129.651 67.8533 127.944 67.512C126.28 67.2133 124.808 66.7653 123.528 66.168C122.291 65.528 121.309 64.76 120.584 63.864C119.901 62.9253 119.56 61.8587 119.56 60.664C119.56 59.4267 119.923 58.3813 120.648 57.528C121.373 56.632 122.163 55.9493 123.016 55.48C124.211 56.4187 125.661 57.2293 127.368 57.912C129.117 58.5947 131.016 58.936 133.064 58.936C135.155 58.936 136.627 58.616 137.48 57.976C138.333 57.336 138.76 56.5893 138.76 55.736C138.76 54.8827 138.419 54.2427 137.736 53.816C137.053 53.3467 136.093 52.8987 134.856 52.472L132.168 51.576ZM166.458 56.312C166.458 57.4213 166.799 58.2107 167.482 58.68C168.207 59.1493 169.21 59.384 170.49 59.384C171.13 59.384 171.791 59.3413 172.474 59.256C173.157 59.128 173.754 58.9787 174.266 58.808C174.65 59.2773 174.97 59.8107 175.226 60.408C175.525 60.9627 175.674 61.6453 175.674 62.456C175.674 64.0773 175.055 65.4 173.818 66.424C172.623 67.448 170.49 67.96 167.418 67.96C163.663 67.96 160.762 67.1067 158.714 65.4C156.709 63.6933 155.706 60.92 155.706 57.08V29.688C156.175 29.56 156.837 29.432 157.69 29.304C158.586 29.1333 159.525 29.048 160.506 29.048C162.383 29.048 163.834 29.3893 164.858 30.072C165.925 30.712 166.458 32.0987 166.458 34.232V38.328H174.842C175.098 38.7973 175.333 39.3947 175.546 40.12C175.802 40.8027 175.93 41.5707 175.93 42.424C175.93 43.9173 175.589 45.0053 174.906 45.688C174.266 46.328 173.391 46.648 172.282 46.648H166.458V56.312ZM192.083 66.936C191.656 67.064 190.974 67.192 190.035 67.32C189.139 67.448 188.2 67.512 187.219 67.512C186.28 67.512 185.427 67.448 184.659 67.32C183.934 67.192 183.315 66.936 182.803 66.552C182.291 66.168 181.886 65.656 181.587 65.016C181.331 64.3333 181.203 63.4587 181.203 62.392V43.192C181.203 42.2107 181.374 41.3787 181.715 40.696C182.099 39.9707 182.632 39.3307 183.315 38.776C183.998 38.2213 184.83 37.7307 185.811 37.304C186.835 36.8347 187.923 36.4293 189.075 36.088C190.227 35.7467 191.422 35.4907 192.659 35.32C193.896 35.1067 195.134 35 196.371 35C198.419 35 200.04 35.4053 201.235 36.216C202.43 36.984 203.027 38.264 203.027 40.056C203.027 40.6533 202.942 41.2507 202.771 41.848C202.6 42.4027 202.387 42.9147 202.131 43.384C201.235 43.384 200.318 43.4267 199.379 43.512C198.44 43.5973 197.523 43.7253 196.627 43.896C195.731 44.0667 194.878 44.2587 194.067 44.472C193.299 44.6427 192.638 44.856 192.083 45.112V66.936ZM222.776 68.024C220.259 68.024 217.912 67.6827 215.736 67C213.603 66.2747 211.725 65.208 210.104 63.8C208.525 62.392 207.267 60.6213 206.328 58.488C205.432 56.3547 204.984 53.8587 204.984 51C204.984 48.184 205.432 45.7733 206.328 43.768C207.267 41.72 208.483 40.056 209.976 38.776C211.469 37.4533 213.176 36.4933 215.096 35.896C217.016 35.256 218.979 34.936 220.984 34.936C223.245 34.936 225.293 35.2773 227.128 35.96C229.005 36.6427 230.605 37.5813 231.928 38.776C233.293 39.9707 234.339 41.4 235.064 43.064C235.832 44.728 236.216 46.5413 236.216 48.504C236.216 49.9547 235.811 51.064 235 51.832C234.189 52.6 233.059 53.0907 231.608 53.304L215.8 55.672C216.269 57.08 217.229 58.1467 218.68 58.872C220.131 59.5547 221.795 59.896 223.672 59.896C225.421 59.896 227.064 59.6827 228.6 59.256C230.179 58.7867 231.459 58.2533 232.44 57.656C233.123 58.0827 233.699 58.68 234.168 59.448C234.637 60.216 234.872 61.0267 234.872 61.88C234.872 63.8 233.976 65.2293 232.184 66.168C230.819 66.8933 229.283 67.384 227.576 67.64C225.869 67.896 224.269 68.024 222.776 68.024ZM220.984 42.872C219.96 42.872 219.064 43.0427 218.296 43.384C217.571 43.7253 216.973 44.1733 216.504 44.728C216.035 45.24 215.672 45.8373 215.416 46.52C215.203 47.16 215.075 47.8213 215.032 48.504L225.976 46.712C225.848 45.8587 225.379 45.0053 224.568 44.152C223.757 43.2987 222.563 42.872 220.984 42.872ZM254.765 60.088C255.49 60.088 256.28 60.024 257.133 59.896C258.029 59.7253 258.69 59.512 259.117 59.256V54.136L254.509 54.52C253.314 54.6053 252.333 54.8613 251.565 55.288C250.797 55.7147 250.413 56.3547 250.413 57.208C250.413 58.0613 250.733 58.7653 251.373 59.32C252.056 59.832 253.186 60.088 254.765 60.088ZM254.253 34.936C256.557 34.936 258.648 35.1707 260.525 35.64C262.445 36.1093 264.066 36.8347 265.389 37.816C266.754 38.7547 267.8 39.9707 268.525 41.464C269.25 42.9147 269.613 44.6427 269.613 46.648V60.984C269.613 62.0933 269.293 63.0107 268.653 63.736C268.056 64.4187 267.33 65.016 266.477 65.528C263.704 67.192 259.8 68.024 254.765 68.024C252.504 68.024 250.456 67.8107 248.621 67.384C246.829 66.9573 245.272 66.3173 243.949 65.464C242.669 64.6107 241.666 63.5227 240.941 62.2C240.258 60.8773 239.917 59.3413 239.917 57.592C239.917 54.648 240.792 52.3867 242.541 50.808C244.29 49.2293 247 48.248 250.669 47.864L259.053 46.968V46.52C259.053 45.2827 258.498 44.408 257.389 43.896C256.322 43.3413 254.765 43.064 252.717 43.064C251.096 43.064 249.517 43.2347 247.981 43.576C246.445 43.9173 245.058 44.344 243.821 44.856C243.266 44.472 242.797 43.896 242.413 43.128C242.029 42.3173 241.837 41.4853 241.837 40.632C241.837 39.5227 242.093 38.648 242.605 38.008C243.16 37.3253 243.992 36.7493 245.101 36.28C246.338 35.8107 247.789 35.4693 249.453 35.256C251.16 35.0427 252.76 34.936 254.253 34.936ZM291.178 34.936C292.927 34.936 294.634 35.192 296.298 35.704C298.004 36.1733 299.476 36.8987 300.714 37.88C301.994 37.0267 303.423 36.3227 305.002 35.768C306.623 35.2133 308.564 34.936 310.826 34.936C312.447 34.936 314.026 35.1493 315.562 35.576C317.14 36.0027 318.527 36.6853 319.722 37.624C320.959 38.52 321.94 39.736 322.666 41.272C323.391 42.7653 323.754 44.6 323.754 46.776V66.936C323.327 67.064 322.644 67.192 321.706 67.32C320.81 67.448 319.871 67.512 318.89 67.512C317.951 67.512 317.098 67.448 316.33 67.32C315.604 67.192 314.986 66.936 314.474 66.552C313.962 66.168 313.556 65.656 313.258 65.016C313.002 64.3333 312.874 63.4587 312.874 62.392V47.096C312.874 45.816 312.511 44.8987 311.786 44.344C311.06 43.7467 310.079 43.448 308.842 43.448C308.244 43.448 307.604 43.5973 306.922 43.896C306.239 44.152 305.727 44.4293 305.386 44.728C305.428 44.8987 305.45 45.0693 305.45 45.24C305.45 45.368 305.45 45.496 305.45 45.624V66.936C304.98 67.064 304.276 67.192 303.338 67.32C302.442 67.448 301.524 67.512 300.586 67.512C299.647 67.512 298.794 67.448 298.026 67.32C297.3 67.192 296.682 66.936 296.17 66.552C295.658 66.168 295.252 65.656 294.954 65.016C294.698 64.3333 294.57 63.4587 294.57 62.392V47.096C294.57 45.816 294.164 44.8987 293.354 44.344C292.586 43.7467 291.647 43.448 290.538 43.448C289.77 43.448 289.108 43.576 288.554 43.832C287.999 44.0453 287.53 44.2587 287.146 44.472V66.936C286.719 67.064 286.036 67.192 285.098 67.32C284.202 67.448 283.263 67.512 282.282 67.512C281.343 67.512 280.49 67.448 279.722 67.32C278.996 67.192 278.378 66.936 277.866 66.552C277.354 66.168 276.948 65.656 276.65 65.016C276.394 64.3333 276.266 63.4587 276.266 62.392V43.064C276.266 41.912 276.5 40.9947 276.97 40.312C277.482 39.6293 278.164 38.9893 279.018 38.392C280.468 37.368 282.26 36.536 284.394 35.896C286.57 35.256 288.831 34.936 291.178 34.936ZM346.839 68.024C344.321 68.024 341.975 67.6827 339.799 67C337.665 66.2747 335.788 65.208 334.167 63.8C332.588 62.392 331.329 60.6213 330.391 58.488C329.495 56.3547 329.047 53.8587 329.047 51C329.047 48.184 329.495 45.7733 330.391 43.768C331.329 41.72 332.545 40.056 334.039 38.776C335.532 37.4533 337.239 36.4933 339.159 35.896C341.079 35.256 343.041 34.936 345.047 34.936C347.308 34.936 349.356 35.2773 351.191 35.96C353.068 36.6427 354.668 37.5813 355.991 38.776C357.356 39.9707 358.401 41.4 359.127 43.064C359.895 44.728 360.279 46.5413 360.279 48.504C360.279 49.9547 359.873 51.064 359.062 51.832C358.252 52.6 357.121 53.0907 355.671 53.304L339.863 55.672C340.332 57.08 341.292 58.1467 342.743 58.872C344.193 59.5547 345.857 59.896 347.735 59.896C349.484 59.896 351.127 59.6827 352.663 59.256C354.241 58.7867 355.521 58.2533 356.503 57.656C357.185 58.0827 357.761 58.68 358.231 59.448C358.7 60.216 358.935 61.0267 358.935 61.88C358.935 63.8 358.039 65.2293 356.247 66.168C354.881 66.8933 353.345 67.384 351.639 67.64C349.932 67.896 348.332 68.024 346.839 68.024ZM345.047 42.872C344.023 42.872 343.127 43.0427 342.359 43.384C341.633 43.7253 341.036 44.1733 340.567 44.728C340.097 45.24 339.735 45.8373 339.479 46.52C339.265 47.16 339.137 47.8213 339.095 48.504L350.039 46.712C349.911 45.8587 349.441 45.0053 348.631 44.152C347.82 43.2987 346.625 42.872 345.047 42.872ZM364.172 51.448C364.172 48.632 364.598 46.2 365.452 44.152C366.305 42.0613 367.478 40.3333 368.972 38.968C370.508 37.6027 372.278 36.6 374.284 35.96C376.332 35.2773 378.529 34.936 380.876 34.936C381.729 34.936 382.561 35.0213 383.372 35.192C384.182 35.32 384.844 35.4907 385.356 35.704V25.336C385.782 25.208 386.465 25.08 387.404 24.952C388.342 24.7813 389.302 24.696 390.284 24.696C391.222 24.696 392.054 24.76 392.78 24.888C393.548 25.016 394.188 25.272 394.7 25.656C395.212 26.04 395.596 26.5733 395.852 27.256C396.108 27.896 396.236 28.7493 396.236 29.816V60.152C396.236 62.1573 395.297 63.7573 393.42 64.952C392.182 65.7627 390.582 66.4667 388.62 67.064C386.657 67.704 384.396 68.024 381.836 68.024C379.062 68.024 376.566 67.64 374.348 66.872C372.172 66.104 370.316 64.9947 368.78 63.544C367.286 62.0933 366.134 60.3653 365.324 58.36C364.556 56.312 364.172 54.008 364.172 51.448ZM382.348 43.448C380.044 43.448 378.273 44.1093 377.036 45.432C375.798 46.7547 375.18 48.76 375.18 51.448C375.18 54.0933 375.756 56.0987 376.908 57.464C378.06 58.7867 379.724 59.448 381.9 59.448C382.668 59.448 383.35 59.3413 383.948 59.128C384.588 58.872 385.078 58.5947 385.42 58.296V44.216C384.566 43.704 383.542 43.448 382.348 43.448Z" fill="white"/>
<rect x="10" y="9" width="79" height="79" rx="20" fill="url(#paint0_linear_3_2)"/>
<path d="M35 30L71 48L35 66V30Z" fill="#6665DD"/>
<defs>
<linearGradient id="paint0_linear_3_2" x1="22" y1="14.5" x2="69.5" y2="88" gradientUnits="userSpaceOnUse">
<stop offset="0.175" stop-color="#473BF0"/>
<stop offset="1" stop-color="#29228A"/>
</linearGradient>
</defs>
</svg>
