<svg width="1198" height="255" viewBox="0 0 1198 255" fill="none" xmlns="http://www.w3.org/2000/svg">
<mask id="path-1-outside-1_23_60" maskUnits="userSpaceOnUse" x="-1" y="-1" width="1200" height="257" fill="black">
<rect fill="white" x="-1" y="-1" width="1200" height="257"/>
<path d="M144.8 242C141.533 244.8 136.4 247.25 129.4 249.35C122.633 251.45 115.167 252.5 107 252.5C97.2 252.5 88.8 251.1 81.8 248.3C74.8 245.267 70.0167 241.183 67.45 236.05C64.8833 230.683 61.7333 223.8 58 215.4C54.2667 206.767 50.3 197.2 46.1 186.7C42.1333 176.2 37.9333 165.117 33.5 153.45C29.3 141.55 25.2167 129.533 21.25 117.4C17.2833 105.267 13.55 93.3667 10.05 81.7C6.55 70.0333 3.51667 59.0667 0.95 48.8C4.21667 45.5333 8.88333 42.6167 14.95 40.05C21.25 37.25 27.9 35.85 34.9 35.85C43.5333 35.85 50.5333 37.7167 55.9 41.45C61.5 44.95 65.5833 51.6 68.15 61.4C74.45 84.2667 80.75 106.2 87.05 127.2C93.5833 147.967 100.35 169.667 107.35 192.3H109.45C115.75 170.367 122.167 146.45 128.7 120.55C135.467 94.65 141.883 68.8667 147.95 43.2C152.15 41.1 156.583 39.35 161.25 37.95C166.15 36.55 171.633 35.85 177.7 35.85C186.333 35.85 193.683 37.8333 199.75 41.8C205.817 45.5333 208.85 51.8333 208.85 60.7C208.85 65.8333 207.567 73.3 205 83.1C202.667 92.9 199.517 103.983 195.55 116.35C191.817 128.483 187.5 141.2 182.6 154.5C177.933 167.8 173.15 180.4 168.25 192.3C163.583 203.967 159.15 214.35 154.95 223.45C150.75 232.317 147.367 238.5 144.8 242ZM1000.92 163.95C1000.92 178.417 998.705 191.367 994.272 202.8C989.839 214 983.539 223.45 975.372 231.15C967.439 238.85 957.872 244.683 946.672 248.65C935.472 252.617 922.989 254.6 909.222 254.6C895.455 254.6 882.972 252.5 871.772 248.3C860.572 244.1 850.889 238.15 842.722 230.45C834.789 222.517 828.605 212.95 824.172 201.75C819.739 190.55 817.522 177.95 817.522 163.95C817.522 150.183 819.739 137.7 824.172 126.5C828.605 115.3 834.789 105.85 842.722 98.15C850.889 90.2167 860.572 84.15 871.772 79.95C882.972 75.75 895.455 73.65 909.222 73.65C922.989 73.65 935.472 75.8667 946.672 80.3C957.872 84.5 967.439 90.5667 975.372 98.5C983.539 106.2 989.839 115.65 994.272 126.85C998.705 138.05 1000.92 150.417 1000.92 163.95ZM878.422 163.95C878.422 178.183 881.105 189.15 886.472 196.85C892.072 204.317 899.772 208.05 909.572 208.05C919.372 208.05 926.839 204.2 931.972 196.5C937.339 188.8 940.022 177.95 940.022 163.95C940.022 149.95 937.339 139.217 931.972 131.75C926.605 124.05 919.022 120.2 909.222 120.2C899.422 120.2 891.839 124.05 886.472 131.75C881.105 139.217 878.422 149.95 878.422 163.95Z"/>
<path d="M254.025 31.65C254.025 22.7833 256.941 15.3167 262.775 9.24998C268.841 3.18332 276.775 0.149991 286.575 0.149991C296.375 0.149991 304.191 3.18332 310.025 9.24998C316.091 15.3167 319.125 22.7833 319.125 31.65C319.125 40.5167 316.091 47.9833 310.025 54.05C304.191 60.1167 296.375 63.15 286.575 63.15C276.775 63.15 268.841 60.1167 262.775 54.05C256.941 47.9833 254.025 40.5167 254.025 31.65ZM316.325 248.65C313.758 249.117 309.908 249.7 304.775 250.4C299.875 251.333 294.858 251.8 289.725 251.8C284.591 251.8 279.925 251.45 275.725 250.75C271.758 250.05 268.375 248.65 265.575 246.55C262.775 244.45 260.558 241.65 258.925 238.15C257.525 234.417 256.825 229.633 256.825 223.8V81.35C259.391 80.8833 263.125 80.3 268.025 79.6C273.158 78.6667 278.291 78.2 283.425 78.2C288.558 78.2 293.108 78.55 297.075 79.25C301.275 79.95 304.775 81.35 307.575 83.45C310.375 85.55 312.475 88.4667 313.875 92.2C315.508 95.7 316.325 100.367 316.325 106.2V248.65Z"/>
<path d="M371.354 163.95C371.354 148.55 373.687 135.25 378.354 124.05C383.021 112.617 389.437 103.167 397.604 95.7C406.004 88.2333 415.687 82.75 426.654 79.25C437.854 75.5167 449.871 73.65 462.704 73.65C467.371 73.65 471.921 74.1167 476.354 75.05C480.787 75.75 484.404 76.6833 487.204 77.85V21.15C489.537 20.45 493.271 19.75 498.404 19.05C503.537 18.1167 508.787 17.65 514.154 17.65C519.287 17.65 523.837 18 527.804 18.7C532.004 19.4 535.504 20.8 538.304 22.9C541.104 25 543.204 27.9167 544.604 31.65C546.004 35.15 546.704 39.8167 546.704 45.65V211.55C546.704 222.517 541.571 231.267 531.304 237.8C524.537 242.233 515.787 246.083 505.054 249.35C494.321 252.85 481.954 254.6 467.954 254.6C452.787 254.6 439.137 252.5 427.004 248.3C415.104 244.1 404.954 238.033 396.554 230.1C388.387 222.167 382.087 212.717 377.654 201.75C373.454 190.55 371.354 177.95 371.354 163.95ZM470.754 120.2C458.154 120.2 448.471 123.817 441.704 131.05C434.937 138.283 431.554 149.25 431.554 163.95C431.554 178.417 434.704 189.383 441.004 196.85C447.304 204.083 456.404 207.7 468.304 207.7C472.504 207.7 476.237 207.117 479.504 205.95C483.004 204.55 485.687 203.033 487.554 201.4V124.4C482.887 121.6 477.287 120.2 470.754 120.2ZM698.232 254.6C684.465 254.6 671.632 252.733 659.732 249C648.065 245.033 637.799 239.2 628.932 231.5C620.299 223.8 613.415 214.117 608.282 202.45C603.382 190.783 600.932 177.133 600.932 161.5C600.932 146.1 603.382 132.917 608.282 121.95C613.415 110.75 620.065 101.65 628.232 94.65C636.399 87.4167 645.732 82.1667 656.232 78.9C666.732 75.4 677.465 73.65 688.432 73.65C700.799 73.65 711.999 75.5167 722.032 79.25C732.299 82.9833 741.049 88.1167 748.282 94.65C755.749 101.183 761.465 109 765.432 118.1C769.632 127.2 771.732 137.117 771.732 147.85C771.732 155.783 769.515 161.85 765.082 166.05C760.649 170.25 754.465 172.933 746.532 174.1L660.082 187.05C662.649 194.75 667.899 200.583 675.832 204.55C683.765 208.283 692.865 210.15 703.132 210.15C712.699 210.15 721.682 208.983 730.082 206.65C738.715 204.083 745.715 201.167 751.082 197.9C754.815 200.233 757.965 203.5 760.532 207.7C763.099 211.9 764.382 216.333 764.382 221C764.382 231.5 759.482 239.317 749.682 244.45C742.215 248.417 733.815 251.1 724.482 252.5C715.149 253.9 706.399 254.6 698.232 254.6ZM688.432 117.05C682.832 117.05 677.932 117.983 673.732 119.85C669.765 121.717 666.499 124.167 663.932 127.2C661.365 130 659.382 133.267 657.982 137C656.815 140.5 656.115 144.117 655.882 147.85L715.732 138.05C715.032 133.383 712.465 128.717 708.032 124.05C703.599 119.383 697.065 117.05 688.432 117.05Z"/>
<path d="M1197.95 198.25C1197.95 215.983 1191.3 229.867 1178 239.9C1164.7 249.933 1145.1 254.95 1119.2 254.95C1109.4 254.95 1100.3 254.25 1091.9 252.85C1083.5 251.45 1076.27 249.35 1070.2 246.55C1064.37 243.517 1059.7 239.783 1056.2 235.35C1052.93 230.917 1051.3 225.667 1051.3 219.6C1051.3 214 1052.47 209.333 1054.8 205.6C1057.13 201.633 1059.93 198.367 1063.2 195.8C1069.97 199.533 1077.67 202.917 1086.3 205.95C1095.17 208.75 1105.32 210.15 1116.75 210.15C1123.98 210.15 1129.47 209.1 1133.2 207C1137.17 204.9 1139.15 202.1 1139.15 198.6C1139.15 195.333 1137.75 192.767 1134.95 190.9C1132.15 189.033 1127.48 187.517 1120.95 186.35L1110.45 184.25C1090.15 180.283 1074.98 174.1 1064.95 165.7C1055.15 157.067 1050.25 144.817 1050.25 128.95C1050.25 120.317 1052.12 112.5 1055.85 105.5C1059.58 98.5 1064.83 92.6667 1071.6 88C1078.37 83.3333 1086.42 79.7167 1095.75 77.15C1105.32 74.5833 1115.82 73.3 1127.25 73.3C1135.88 73.3 1143.93 74 1151.4 75.4C1159.1 76.5667 1165.75 78.4333 1171.35 81C1176.95 83.5667 1181.38 86.95 1184.65 91.15C1187.92 95.1167 1189.55 99.9 1189.55 105.5C1189.55 110.867 1188.5 115.533 1186.4 119.5C1184.53 123.233 1182.08 126.383 1179.05 128.95C1177.18 127.783 1174.38 126.617 1170.65 125.45C1166.92 124.05 1162.83 122.883 1158.4 121.95C1153.97 120.783 1149.42 119.85 1144.75 119.15C1140.32 118.45 1136.23 118.1 1132.5 118.1C1124.8 118.1 1118.85 119.033 1114.65 120.9C1110.45 122.533 1108.35 125.217 1108.35 128.95C1108.35 131.517 1109.52 133.617 1111.85 135.25C1114.18 136.883 1118.62 138.4 1125.15 139.8L1136 142.25C1158.4 147.383 1174.27 154.5 1183.6 163.6C1193.17 172.467 1197.95 184.017 1197.95 198.25Z"/>
</mask>
<path d="M144.8 242L145.451 242.759L145.538 242.684L145.606 242.591L144.8 242ZM129.4 249.35L129.113 248.392L129.104 248.395L129.4 249.35ZM81.8 248.3L81.4024 249.218L81.4154 249.223L81.4286 249.228L81.8 248.3ZM67.45 236.05L66.5479 236.481L66.5517 236.489L66.5556 236.497L67.45 236.05ZM58 215.4L57.0821 215.797L57.0862 215.806L58 215.4ZM46.1 186.7L45.1645 187.053L45.1679 187.062L45.1715 187.071L46.1 186.7ZM33.5 153.45L32.557 153.783L32.561 153.794L32.5652 153.805L33.5 153.45ZM21.25 117.4L20.2995 117.711L20.2995 117.711L21.25 117.4ZM10.05 81.7L9.09217 81.9873L10.05 81.7ZM0.95 48.8L0.242894 48.0929L-0.157463 48.4932L-0.0201422 49.0425L0.95 48.8ZM14.95 40.05L15.3396 40.971L15.3479 40.9675L15.3561 40.9638L14.95 40.05ZM55.9 41.45L55.3289 42.2709L55.3491 42.2849L55.37 42.298L55.9 41.45ZM68.15 61.4L67.1826 61.6534L67.1859 61.6656L68.15 61.4ZM87.05 127.2L86.0921 127.487L86.0961 127.5L87.05 127.2ZM107.35 192.3L106.395 192.595L106.613 193.3H107.35V192.3ZM109.45 192.3V193.3H110.203L110.411 192.576L109.45 192.3ZM128.7 120.55L127.732 120.297L127.73 120.305L128.7 120.55ZM147.95 43.2L147.503 42.3056L147.084 42.5148L146.977 42.97L147.95 43.2ZM161.25 37.95L160.975 36.9884L160.963 36.9922L161.25 37.95ZM199.75 41.8L199.203 42.637L199.214 42.6445L199.226 42.6517L199.75 41.8ZM205 83.1L204.033 82.8466L204.03 82.8575L204.027 82.8684L205 83.1ZM195.55 116.35L194.598 116.045L194.594 116.056L195.55 116.35ZM182.6 154.5L181.662 154.154L181.659 154.162L181.656 154.169L182.6 154.5ZM168.25 192.3L167.325 191.919L167.322 191.929L168.25 192.3ZM154.95 223.45L155.854 223.878L155.858 223.869L154.95 223.45ZM144.149 241.241C141.038 243.908 136.06 246.308 129.113 248.392L129.687 250.308C136.74 248.192 142.029 245.692 145.451 242.759L144.149 241.241ZM129.104 248.395C122.446 250.461 115.081 251.5 107 251.5V253.5C115.252 253.5 122.82 252.439 129.696 250.305L129.104 248.395ZM107 251.5C97.2909 251.5 89.0237 250.112 82.1714 247.372L81.4286 249.228C88.5763 252.088 97.1091 253.5 107 253.5V251.5ZM82.1976 247.382C75.3417 244.412 70.7756 240.465 68.3444 235.603L66.5556 236.497C69.2577 241.901 74.2583 246.122 81.4024 249.218L82.1976 247.382ZM68.3521 235.619C65.791 230.263 62.6452 223.389 58.9138 214.994L57.0862 215.806C60.8215 224.211 63.9757 231.103 66.5479 236.481L68.3521 235.619ZM58.9179 215.003C55.1888 206.38 51.2257 196.822 47.0285 186.329L45.1715 187.071C49.3743 197.578 53.3445 207.154 57.0821 215.797L58.9179 215.003ZM47.0355 186.347C43.0686 175.846 38.8683 164.762 34.4348 153.095L32.5652 153.805C36.9983 165.471 41.1981 176.554 45.1645 187.053L47.0355 186.347ZM34.443 153.117C30.2456 141.225 26.1648 129.215 22.2005 117.089L20.2995 117.711C24.2686 129.851 28.3544 141.875 32.557 153.783L34.443 153.117ZM22.2005 117.089C18.2362 104.963 14.5054 93.0711 11.0078 81.4126L9.09217 81.9873C12.5946 93.6622 16.3304 105.57 20.2995 117.711L22.2005 117.089ZM11.0078 81.4126C7.51163 69.7587 4.48254 58.8071 1.92014 48.5575L-0.0201422 49.0425C2.55079 59.3263 5.58837 70.308 9.09217 81.9873L11.0078 81.4126ZM1.65711 49.5071C4.80273 46.3615 9.34502 43.5071 15.3396 40.971L14.5604 39.129C8.42165 41.7262 3.6306 44.7052 0.242894 48.0929L1.65711 49.5071ZM15.3561 40.9638C21.5263 38.2215 28.0377 36.85 34.9 36.85V34.85C27.7623 34.85 20.9737 36.2785 14.5439 39.1362L15.3561 40.9638ZM34.9 36.85C43.3938 36.85 50.1761 38.6863 55.3289 42.2709L56.4711 40.6291C50.8906 36.747 43.6728 34.85 34.9 34.85V36.85ZM55.37 42.298C60.6629 45.6061 64.6471 51.9722 67.1826 61.6534L69.1174 61.1466C66.5196 51.2278 62.3371 44.2939 56.43 40.602L55.37 42.298ZM67.1859 61.6656C73.4878 84.539 79.7898 106.48 86.0922 127.487L88.0078 126.913C81.7102 105.92 75.4122 83.9944 69.1141 61.1344L67.1859 61.6656ZM86.0961 127.5C92.6289 148.265 99.3951 169.964 106.395 192.595L108.305 192.005C101.305 169.37 94.5378 147.668 88.0039 126.9L86.0961 127.5ZM107.35 193.3H109.45V191.3H107.35V193.3ZM110.411 192.576C116.715 170.631 123.134 146.703 129.67 120.795L127.73 120.305C121.199 146.197 114.785 170.103 108.489 192.024L110.411 192.576ZM129.668 120.803C136.436 94.8953 142.855 69.1044 148.923 43.43L146.977 42.97C140.912 68.6289 134.497 94.4047 127.732 120.297L129.668 120.803ZM148.397 44.0944C152.544 42.0211 156.924 40.2919 161.537 38.9078L160.963 36.9922C156.243 38.4081 151.756 40.1789 147.503 42.3056L148.397 44.0944ZM161.525 38.9115C166.32 37.5413 171.709 36.85 177.7 36.85V34.85C171.558 34.85 165.98 35.5586 160.975 36.9885L161.525 38.9115ZM177.7 36.85C186.177 36.85 193.328 38.7956 199.203 42.637L200.297 40.963C194.039 36.8711 186.49 34.85 177.7 34.85V36.85ZM199.226 42.6517C204.922 46.157 207.85 52.0826 207.85 60.7H209.85C209.85 51.584 206.711 44.9097 200.274 40.9483L199.226 42.6517ZM207.85 60.7C207.85 65.7005 206.594 73.0656 204.033 82.8466L205.967 83.3533C208.539 73.5344 209.85 65.9662 209.85 60.7H207.85ZM204.027 82.8684C201.701 92.6376 198.559 103.696 194.598 116.045L196.502 116.655C200.475 104.271 203.632 93.1624 205.973 83.3316L204.027 82.8684ZM194.594 116.056C190.867 128.17 186.556 140.869 181.662 154.154L183.538 154.846C188.444 141.531 192.767 128.797 196.506 116.644L194.594 116.056ZM181.656 154.169C176.995 167.454 172.218 180.037 167.325 191.919L169.175 192.681C174.082 180.763 178.872 168.146 183.544 154.831L181.656 154.169ZM167.322 191.929C162.66 203.583 158.233 213.95 154.042 223.031L155.858 223.869C160.067 214.75 164.507 204.35 169.178 192.671L167.322 191.929ZM154.046 223.022C149.848 231.884 146.499 237.992 143.994 241.409L145.606 242.591C148.234 239.008 151.652 232.749 155.854 223.878L154.046 223.022ZM262.775 9.24998L262.068 8.54287L262.061 8.5498L262.054 8.55687L262.775 9.24998ZM310.025 9.24998L309.304 9.94309L309.311 9.95015L309.318 9.95708L310.025 9.24998ZM310.025 54.05L309.318 53.3429L309.311 53.3498L309.304 53.3569L310.025 54.05ZM262.775 54.05L262.054 54.7431L262.061 54.7502L262.068 54.7571L262.775 54.05ZM316.325 248.65L316.503 249.634L317.325 249.485V248.65H316.325ZM304.775 250.4L304.639 249.409L304.613 249.413L304.587 249.418L304.775 250.4ZM275.725 250.75L275.551 251.735L275.56 251.736L275.725 250.75ZM265.575 246.55L264.975 247.35L264.975 247.35L265.575 246.55ZM258.925 238.15L257.988 238.501L258.002 238.538L258.018 238.573L258.925 238.15ZM256.825 81.35L256.646 80.3661L255.825 80.5154V81.35H256.825ZM268.025 79.6L268.166 80.5899L268.185 80.5873L268.203 80.5839L268.025 79.6ZM297.075 79.25L296.901 80.2348L296.91 80.2364L297.075 79.25ZM307.575 83.45L306.975 84.25L306.975 84.25L307.575 83.45ZM313.875 92.2L312.938 92.5511L312.952 92.5876L312.968 92.6229L313.875 92.2ZM255.025 31.65C255.025 23.0265 257.852 15.8127 263.495 9.94309L262.054 8.55687C256.031 14.8206 253.025 22.5402 253.025 31.65H255.025ZM263.482 9.95709C269.334 4.10509 276.999 1.14999 286.575 1.14999V-0.850009C276.55 -0.850009 268.349 2.26155 262.068 8.54287L263.482 9.95709ZM286.575 1.14999C296.151 1.14999 303.69 4.10499 309.304 9.94309L310.745 8.55687C304.692 2.26165 296.598 -0.850009 286.575 -0.850009V1.14999ZM309.318 9.95708C315.19 15.8293 318.125 23.0386 318.125 31.65H320.125C320.125 22.528 316.993 14.804 310.732 8.54287L309.318 9.95708ZM318.125 31.65C318.125 40.2614 315.19 47.4707 309.318 53.3429L310.732 54.7571C316.993 48.496 320.125 40.772 320.125 31.65H318.125ZM309.304 53.3569C303.69 59.195 296.151 62.15 286.575 62.15V64.15C296.598 64.15 304.692 61.0383 310.745 54.7431L309.304 53.3569ZM286.575 62.15C276.999 62.15 269.334 59.1949 263.482 53.3429L262.068 54.7571C268.349 61.0384 276.55 64.15 286.575 64.15V62.15ZM263.495 53.3569C257.852 47.4872 255.025 40.2735 255.025 31.65H253.025C253.025 40.7598 256.031 48.4794 262.054 54.7431L263.495 53.3569ZM316.146 247.666C313.602 248.129 309.769 248.71 304.639 249.409L304.91 251.391C310.046 250.69 313.914 250.105 316.503 249.634L316.146 247.666ZM304.587 249.418C299.751 250.339 294.797 250.8 289.725 250.8V252.8C294.919 252.8 299.998 252.328 304.962 251.382L304.587 249.418ZM289.725 250.8C284.636 250.8 280.025 250.453 275.889 249.764L275.56 251.736C279.824 252.447 284.547 252.8 289.725 252.8V250.8ZM275.898 249.765C272.063 249.088 268.831 247.743 266.175 245.75L264.975 247.35C267.918 249.557 271.453 251.012 275.551 251.735L275.898 249.765ZM266.175 245.75C263.519 243.759 261.402 241.094 259.831 237.727L258.018 238.573C259.714 242.206 262.03 245.141 264.975 247.35L266.175 245.75ZM259.861 237.799C258.518 234.217 257.825 229.564 257.825 223.8H255.825C255.825 229.703 256.531 234.616 257.988 238.501L259.861 237.799ZM257.825 223.8V81.35H255.825V223.8H257.825ZM257.003 82.3339C259.551 81.8706 263.27 81.2894 268.166 80.5899L267.883 78.61C262.98 79.3105 259.231 79.896 256.646 80.3661L257.003 82.3339ZM268.203 80.5839C273.279 79.6611 278.352 79.2 283.425 79.2V77.2C278.23 77.2 273.037 77.6722 267.846 78.6161L268.203 80.5839ZM283.425 79.2C288.515 79.2 293.005 79.5472 296.901 80.2348L297.248 78.2652C293.211 77.5528 288.601 77.2 283.425 77.2V79.2ZM296.91 80.2364C300.986 80.9157 304.328 82.2648 306.975 84.25L308.175 82.65C305.222 80.4352 301.563 78.9843 297.239 78.2636L296.91 80.2364ZM306.975 84.25C309.602 86.2202 311.596 88.9709 312.938 92.5511L314.811 91.8489C313.354 87.9624 311.148 84.8798 308.175 82.65L306.975 84.25ZM312.968 92.6229C314.517 95.9404 315.325 100.445 315.325 106.2H317.325C317.325 100.288 316.499 95.4596 314.781 91.7771L312.968 92.6229ZM315.325 106.2V248.65H317.325V106.2H315.325ZM378.354 124.05L379.277 124.435L379.28 124.428L378.354 124.05ZM397.604 95.7L396.939 94.9525L396.929 94.962L397.604 95.7ZM426.654 79.25L426.958 80.2027L426.97 80.1987L426.654 79.25ZM476.354 75.05L476.148 76.0285L476.173 76.0338L476.198 76.0378L476.354 75.05ZM487.204 77.85L486.819 78.7731L488.204 79.35V77.85H487.204ZM487.204 21.15L486.917 20.1922L486.204 20.406V21.15H487.204ZM498.404 19.05L498.539 20.0408L498.561 20.0378L498.583 20.0339L498.404 19.05ZM527.804 18.7L527.63 19.6848L527.64 19.6864L527.804 18.7ZM538.304 22.9L537.704 23.7L537.704 23.7L538.304 22.9ZM544.604 31.65L543.668 32.0011L543.671 32.0113L543.675 32.0214L544.604 31.65ZM531.304 237.8L530.767 236.956L530.756 236.964L531.304 237.8ZM505.054 249.35L504.763 248.393L504.753 248.396L504.744 248.399L505.054 249.35ZM427.004 248.3L426.671 249.243L426.677 249.245L427.004 248.3ZM396.554 230.1L395.857 230.817L395.867 230.827L396.554 230.1ZM377.654 201.75L376.718 202.101L376.722 202.113L376.727 202.125L377.654 201.75ZM441.704 131.05L442.434 131.733L442.434 131.733L441.704 131.05ZM441.004 196.85L440.24 197.495L440.245 197.501L440.25 197.507L441.004 196.85ZM479.504 205.95L479.84 206.892L479.858 206.885L479.875 206.878L479.504 205.95ZM487.554 201.4L488.212 202.153L488.554 201.854V201.4H487.554ZM487.554 124.4H488.554V123.834L488.068 123.543L487.554 124.4ZM372.354 163.95C372.354 148.648 374.673 135.485 379.277 124.435L377.431 123.665C372.702 135.015 370.354 148.452 370.354 163.95H372.354ZM379.28 124.428C383.897 113.116 390.233 103.794 398.279 96.438L396.929 94.962C388.641 102.54 382.144 112.118 377.428 123.672L379.28 124.428ZM398.268 96.4474C406.561 89.0759 416.121 83.6612 426.958 80.2027L426.35 78.2973C415.253 81.8388 405.447 87.3908 396.94 94.9526L398.268 96.4474ZM426.97 80.1987C438.06 76.5022 449.969 74.65 462.704 74.65V72.65C449.772 72.65 437.648 74.5312 426.338 78.3013L426.97 80.1987ZM462.704 74.65C467.303 74.65 471.784 75.1099 476.148 76.0285L476.56 74.0714C472.057 73.1234 467.438 72.65 462.704 72.65V74.65ZM476.198 76.0378C480.586 76.7307 484.119 77.6478 486.819 78.7731L487.589 76.9269C484.689 75.7189 480.988 74.7693 476.51 74.0622L476.198 76.0378ZM488.204 77.85V21.15H486.204V77.85H488.204ZM487.491 22.1078C489.745 21.4316 493.413 20.7398 498.539 20.0408L498.269 18.0592C493.128 18.7602 489.329 19.4684 486.917 20.1922L487.491 22.1078ZM498.583 20.0339C503.655 19.1116 508.846 18.65 514.154 18.65V16.65C508.729 16.65 503.419 17.1218 498.225 18.0661L498.583 20.0339ZM514.154 18.65C519.244 18.65 523.734 18.9972 527.63 19.6848L527.978 17.7152C523.941 17.0028 519.331 16.65 514.154 16.65V18.65ZM527.64 19.6864C531.715 20.3657 535.057 21.7148 537.704 23.7L538.904 22.1C535.951 19.8852 532.293 18.4343 527.968 17.7136L527.64 19.6864ZM537.704 23.7C540.331 25.6702 542.325 28.4209 543.668 32.0011L545.54 31.2989C544.083 27.4124 541.877 24.3298 538.904 22.1L537.704 23.7ZM543.675 32.0214C545.01 35.3567 545.704 39.8817 545.704 45.65H547.704C547.704 39.7516 546.998 34.9433 545.532 31.2786L543.675 32.0214ZM545.704 45.65V211.55H547.704V45.65H545.704ZM545.704 211.55C545.704 222.133 540.783 230.583 530.767 236.956L531.841 238.644C542.358 231.951 547.704 222.901 547.704 211.55H545.704ZM530.756 236.964C524.093 241.329 515.438 245.144 504.763 248.393L505.345 250.307C516.137 247.022 524.982 243.138 531.852 238.636L530.756 236.964ZM504.744 248.399C494.131 251.86 481.873 253.6 467.954 253.6V255.6C482.035 255.6 494.51 253.84 505.364 250.301L504.744 248.399ZM467.954 253.6C452.879 253.6 439.342 251.513 427.331 247.355L426.677 249.245C438.932 253.487 452.696 255.6 467.954 255.6V253.6ZM427.337 247.357C415.556 243.199 405.53 237.202 397.241 229.373L395.867 230.827C404.378 238.865 414.652 245.001 426.671 249.243L427.337 247.357ZM397.251 229.383C389.188 221.55 382.964 212.218 378.581 201.375L376.727 202.125C381.21 213.215 387.587 222.783 395.857 230.817L397.251 229.383ZM378.59 201.399C374.439 190.329 372.354 177.85 372.354 163.95H370.354C370.354 178.05 372.469 190.771 376.718 202.101L378.59 201.399ZM470.754 119.2C457.957 119.2 447.978 122.88 440.974 130.367L442.434 131.733C448.963 124.754 458.351 121.2 470.754 121.2V119.2ZM440.974 130.367C433.966 137.858 430.554 149.117 430.554 163.95H432.554C432.554 149.383 435.909 138.709 442.434 131.733L440.974 130.367ZM430.554 163.95C430.554 178.543 433.729 189.779 440.24 197.495L441.768 196.205C435.679 188.988 432.554 178.291 432.554 163.95H430.554ZM440.25 197.507C446.784 205.009 456.19 208.7 468.304 208.7V206.7C456.618 206.7 447.824 203.157 441.758 196.193L440.25 197.507ZM468.304 208.7C472.595 208.7 476.446 208.104 479.84 206.892L479.168 205.008C476.029 206.129 472.413 206.7 468.304 206.7V208.7ZM479.875 206.878C483.431 205.456 486.229 203.888 488.212 202.153L486.895 200.647C485.146 202.178 482.576 203.644 479.133 205.022L479.875 206.878ZM488.554 201.4V124.4H486.554V201.4H488.554ZM488.068 123.543C483.218 120.632 477.432 119.2 470.754 119.2V121.2C477.142 121.2 482.557 122.568 487.039 125.257L488.068 123.543ZM659.732 249L659.41 249.947L659.421 249.951L659.433 249.954L659.732 249ZM628.932 231.5L628.266 232.246L628.276 232.255L628.932 231.5ZM608.282 202.45L607.36 202.837L607.363 202.845L607.367 202.853L608.282 202.45ZM608.282 121.95L607.373 121.533L607.369 121.542L608.282 121.95ZM628.232 94.65L628.883 95.4093L628.889 95.404L628.895 95.3986L628.232 94.65ZM656.232 78.9L656.529 79.8548L656.539 79.8519L656.548 79.8487L656.232 78.9ZM722.032 79.25L721.683 80.1872L721.69 80.1898L722.032 79.25ZM748.282 94.65L747.612 95.3921L747.618 95.3974L747.624 95.4026L748.282 94.65ZM765.432 118.1L764.515 118.5L764.52 118.509L764.524 118.519L765.432 118.1ZM765.082 166.05L764.394 165.324L764.394 165.324L765.082 166.05ZM746.532 174.1L746.387 173.111L746.384 173.111L746.532 174.1ZM660.082 187.05L659.934 186.061L658.757 186.237L659.133 187.366L660.082 187.05ZM675.832 204.55L675.385 205.444L675.395 205.45L675.406 205.455L675.832 204.55ZM730.082 206.65L730.35 207.614L730.358 207.611L730.367 207.609L730.082 206.65ZM751.082 197.9L751.612 197.052L751.089 196.725L750.562 197.046L751.082 197.9ZM760.532 207.7L761.385 207.179L761.385 207.179L760.532 207.7ZM749.682 244.45L749.218 243.564L749.213 243.567L749.682 244.45ZM724.482 252.5L724.334 251.511L724.334 251.511L724.482 252.5ZM673.732 119.85L673.326 118.936L673.316 118.941L673.306 118.945L673.732 119.85ZM663.932 127.2L664.669 127.876L664.683 127.861L664.695 127.846L663.932 127.2ZM657.982 137L657.046 136.649L657.039 136.666L657.033 136.684L657.982 137ZM655.882 147.85L654.884 147.788L654.806 149.04L656.044 148.837L655.882 147.85ZM715.732 138.05L715.894 139.037L716.867 138.877L716.721 137.902L715.732 138.05ZM708.032 124.05L708.757 123.361L708.757 123.361L708.032 124.05ZM698.232 253.6C684.556 253.6 671.825 251.746 660.031 248.046L659.433 249.954C671.439 253.721 684.374 255.6 698.232 255.6V253.6ZM660.054 248.053C648.504 244.126 638.352 238.356 629.588 230.745L628.276 232.255C637.246 240.044 647.627 245.941 659.41 249.947L660.054 248.053ZM629.598 230.754C621.082 223.158 614.279 213.596 609.197 202.047L607.367 202.853C612.552 214.637 619.516 224.442 628.266 232.246L629.598 230.754ZM609.204 202.063C604.366 190.544 601.932 177.031 601.932 161.5H599.932C599.932 177.236 602.398 191.023 607.36 202.837L609.204 202.063ZM601.932 161.5C601.932 146.202 604.366 133.165 609.195 122.358L607.369 121.542C602.398 132.668 599.932 145.998 599.932 161.5H601.932ZM609.191 122.367C614.273 111.279 620.841 102.302 628.883 95.4093L627.581 93.8907C619.29 100.998 612.558 110.221 607.373 121.533L609.191 122.367ZM628.895 95.3986C636.955 88.2599 646.163 83.0798 656.529 79.8548L655.935 77.9451C645.301 81.2535 635.843 86.5734 627.569 93.9014L628.895 95.3986ZM656.548 79.8487C666.947 76.3823 677.574 74.65 688.432 74.65V72.65C677.357 72.65 666.517 74.4176 655.916 77.9513L656.548 79.8487ZM688.432 74.65C700.698 74.65 711.777 76.5013 721.683 80.1872L722.381 78.3128C712.22 74.532 700.9 72.65 688.432 72.65V74.65ZM721.69 80.1898C731.85 83.8843 740.485 88.9551 747.612 95.3921L748.952 93.9079C741.612 87.2782 732.747 82.0823 722.374 78.3102L721.69 80.1898ZM747.624 95.4026C754.979 101.839 760.608 109.535 764.515 118.5L766.349 117.7C762.323 108.465 756.518 100.528 748.941 93.8974L747.624 95.4026ZM764.524 118.519C768.659 127.479 770.732 137.251 770.732 147.85H772.732C772.732 136.982 770.605 126.921 766.34 117.681L764.524 118.519ZM770.732 147.85C770.732 155.595 768.573 161.365 764.394 165.324L765.77 166.776C770.458 162.335 772.732 155.972 772.732 147.85H770.732ZM764.394 165.324C760.151 169.344 754.179 171.965 746.387 173.111L746.678 175.089C754.751 173.902 761.147 171.156 765.77 166.776L764.394 165.324ZM746.384 173.111L659.934 186.061L660.23 188.039L746.68 175.089L746.384 173.111ZM659.133 187.366C661.792 195.342 667.239 201.371 675.385 205.444L676.279 203.656C668.559 199.795 663.505 194.158 661.031 186.734L659.133 187.366ZM675.406 205.455C683.494 209.261 692.743 211.15 703.132 211.15V209.15C692.988 209.15 684.037 207.306 676.258 203.645L675.406 205.455ZM703.132 211.15C712.78 211.15 721.855 209.973 730.35 207.614L729.814 205.686C721.51 207.993 712.617 209.15 703.132 209.15V211.15ZM730.367 207.609C739.05 205.027 746.138 202.08 751.602 198.754L750.562 197.046C745.293 200.253 738.38 203.14 729.797 205.691L730.367 207.609ZM750.552 198.748C754.139 200.99 757.183 204.138 759.679 208.221L761.385 207.179C758.747 202.862 755.492 199.477 751.612 197.052L750.552 198.748ZM759.679 208.221C762.155 212.273 763.382 216.528 763.382 221H765.382C765.382 216.139 764.042 211.527 761.385 207.179L759.679 208.221ZM763.382 221C763.382 226.089 762.197 230.478 759.86 234.206C757.521 237.937 753.992 241.063 749.218 243.564L750.146 245.336C755.172 242.703 758.993 239.354 761.554 235.269C764.117 231.18 765.382 226.411 765.382 221H763.382ZM749.213 243.567C741.857 247.475 733.568 250.126 724.334 251.511L724.63 253.489C734.063 252.074 742.573 249.359 750.151 245.333L749.213 243.567ZM724.334 251.511C715.042 252.905 706.342 253.6 698.232 253.6V255.6C706.455 255.6 715.255 254.895 724.63 253.489L724.334 251.511ZM688.432 116.05C682.722 116.05 677.678 117.002 673.326 118.936L674.138 120.764C678.186 118.965 682.942 118.05 688.432 118.05V116.05ZM673.306 118.945C669.223 120.867 665.837 123.4 663.169 126.554L664.695 127.846C667.16 124.933 670.307 122.567 674.158 120.755L673.306 118.945ZM663.195 126.524C660.537 129.423 658.488 132.802 657.046 136.649L658.918 137.351C660.276 133.732 662.193 130.577 664.669 127.876L663.195 126.524ZM657.033 136.684C655.839 140.267 655.123 143.969 654.884 147.788L656.88 147.912C657.108 144.264 657.792 140.733 658.931 137.316L657.033 136.684ZM656.044 148.837L715.894 139.037L715.57 137.063L655.72 146.863L656.044 148.837ZM716.721 137.902C715.981 132.97 713.281 128.124 708.757 123.361L707.307 124.739C711.649 129.31 714.083 133.797 714.743 138.198L716.721 137.902ZM708.757 123.361C704.077 118.435 697.242 116.05 688.432 116.05V118.05C696.888 118.05 703.12 120.332 707.307 124.739L708.757 123.361ZM994.272 202.8L995.202 203.168L995.204 203.162L994.272 202.8ZM975.372 231.15L974.686 230.422L974.681 230.427L974.675 230.432L975.372 231.15ZM946.672 248.65L946.338 247.707L946.338 247.707L946.672 248.65ZM871.772 248.3L871.421 249.236L871.421 249.236L871.772 248.3ZM842.722 230.45L842.015 231.157L842.025 231.168L842.036 231.178L842.722 230.45ZM824.172 201.75L823.242 202.118L823.242 202.118L824.172 201.75ZM824.172 126.5L823.242 126.132L823.242 126.132L824.172 126.5ZM842.722 98.15L843.418 98.8676L843.419 98.8673L842.722 98.15ZM871.772 79.95L872.123 80.8863L872.123 80.8863L871.772 79.95ZM946.672 80.3L946.304 81.2298L946.312 81.2331L946.321 81.2363L946.672 80.3ZM975.372 98.5L974.665 99.2071L974.675 99.2175L974.686 99.2276L975.372 98.5ZM994.272 126.85L993.342 127.218L993.342 127.218L994.272 126.85ZM886.472 196.85L885.651 197.422L885.661 197.436L885.672 197.45L886.472 196.85ZM931.972 196.5L931.151 195.928L931.146 195.937L931.14 195.945L931.972 196.5ZM931.972 131.75L931.151 132.322L931.156 132.328L931.16 132.334L931.972 131.75ZM886.472 131.75L887.284 132.334L887.288 132.328L887.292 132.322L886.472 131.75ZM999.922 163.95C999.922 178.315 997.721 191.139 993.34 202.438L995.204 203.162C999.69 191.594 1001.92 178.519 1001.92 163.95H999.922ZM993.342 202.432C988.959 213.506 982.738 222.83 974.686 230.422L976.058 231.878C984.339 224.07 990.718 214.494 995.202 203.168L993.342 202.432ZM974.675 230.432C966.853 238.025 957.413 243.785 946.338 247.707L947.006 249.593C958.331 245.582 968.024 239.675 976.068 231.868L974.675 230.432ZM946.338 247.707C935.261 251.631 922.893 253.6 909.222 253.6V255.6C923.085 255.6 935.683 253.603 947.006 249.593L946.338 247.707ZM909.222 253.6C895.557 253.6 883.195 251.516 872.123 247.364L871.421 249.236C882.749 253.484 895.353 255.6 909.222 255.6V253.6ZM872.123 247.364C861.039 243.207 851.472 237.325 843.408 229.722L842.036 231.178C850.305 238.975 860.105 244.993 871.421 249.236L872.123 247.364ZM843.429 229.743C835.599 221.913 829.488 212.464 825.102 201.382L823.242 202.118C827.722 213.436 833.978 223.12 842.015 231.157L843.429 229.743ZM825.102 201.382C820.722 190.316 818.522 177.844 818.522 163.95H816.522C816.522 178.056 818.755 190.783 823.242 202.118L825.102 201.382ZM818.522 163.95C818.522 150.292 820.721 137.935 825.102 126.868L823.242 126.132C818.756 137.465 816.522 150.075 816.522 163.95H818.522ZM825.102 126.868C829.488 115.788 835.595 106.46 843.418 98.8676L842.025 97.4324C833.982 105.24 827.723 114.812 823.242 126.132L825.102 126.868ZM843.419 98.8673C851.481 91.0348 861.045 85.0404 872.123 80.8863L871.421 79.0137C860.098 83.2596 850.296 89.3985 842.025 97.4327L843.419 98.8673ZM872.123 80.8863C883.195 76.7343 895.557 74.65 909.222 74.65V72.65C895.353 72.65 882.749 74.7657 871.421 79.0137L872.123 80.8863ZM909.222 74.65C922.88 74.65 935.237 76.849 946.304 81.2298L947.04 79.3702C935.707 74.8843 923.097 72.65 909.222 72.65V74.65ZM946.321 81.2363C957.396 85.3896 966.839 91.3813 974.665 99.2071L976.079 97.7929C968.038 89.752 958.348 83.6104 947.023 79.3637L946.321 81.2363ZM974.686 99.2276C982.738 106.82 988.959 116.144 993.342 127.218L995.202 126.482C990.718 115.156 984.339 105.58 976.058 97.7724L974.686 99.2276ZM993.342 127.218C997.724 138.287 999.922 150.527 999.922 163.95H1001.92C1001.92 150.306 999.687 137.813 995.202 126.482L993.342 127.218ZM877.422 163.95C877.422 178.289 880.122 189.488 885.651 197.422L887.292 196.278C882.089 188.812 879.422 178.078 879.422 163.95H877.422ZM885.672 197.45C891.472 205.183 899.476 209.05 909.572 209.05V207.05C900.068 207.05 892.672 203.45 887.272 196.25L885.672 197.45ZM909.572 209.05C919.683 209.05 927.472 205.052 932.804 197.055L931.14 195.945C926.205 203.348 919.061 207.05 909.572 207.05V209.05ZM932.792 197.072C938.32 189.14 941.022 178.06 941.022 163.95H939.022C939.022 177.84 936.357 188.46 931.151 195.928L932.792 197.072ZM941.022 163.95C941.022 149.843 938.322 138.871 932.784 131.166L931.16 132.334C936.356 139.562 939.022 150.057 939.022 163.95H941.022ZM932.792 131.178C927.229 123.196 919.332 119.2 909.222 119.2V121.2C918.712 121.2 925.981 124.904 931.151 132.322L932.792 131.178ZM909.222 119.2C899.112 119.2 891.215 123.196 885.651 131.178L887.292 132.322C892.462 124.904 899.732 121.2 909.222 121.2V119.2ZM885.66 131.166C880.122 138.871 877.422 149.843 877.422 163.95H879.422C879.422 150.057 882.088 139.562 887.284 132.334L885.66 131.166ZM1178 239.9L1178.6 240.698L1178.6 240.698L1178 239.9ZM1091.9 252.85L1092.06 251.864L1091.9 252.85ZM1070.2 246.55L1069.74 247.437L1069.76 247.448L1069.78 247.458L1070.2 246.55ZM1056.2 235.35L1055.39 235.943L1055.4 235.957L1055.42 235.97L1056.2 235.35ZM1054.8 205.6L1055.65 206.13L1055.66 206.119L1055.66 206.107L1054.8 205.6ZM1063.2 195.8L1063.68 194.924L1063.1 194.604L1062.58 195.014L1063.2 195.8ZM1086.3 205.95L1085.97 206.893L1085.98 206.899L1086 206.904L1086.3 205.95ZM1133.2 207L1132.73 206.116L1132.72 206.122L1132.71 206.128L1133.2 207ZM1120.95 186.35L1120.75 187.331L1120.76 187.333L1120.77 187.334L1120.95 186.35ZM1110.45 184.25L1110.65 183.269L1110.64 183.269L1110.45 184.25ZM1064.95 165.7L1064.29 166.45L1064.3 166.459L1064.31 166.467L1064.95 165.7ZM1055.85 105.5L1054.97 105.029L1054.97 105.029L1055.85 105.5ZM1071.6 88L1072.17 88.8232L1072.17 88.8232L1071.6 88ZM1095.75 77.15L1095.49 76.1841L1095.48 76.1858L1095.75 77.15ZM1151.4 75.4L1151.22 76.3829L1151.23 76.3861L1151.25 76.3887L1151.4 75.4ZM1171.35 81L1170.93 81.9091L1170.93 81.9091L1171.35 81ZM1184.65 91.15L1183.86 91.7639L1183.87 91.7749L1183.88 91.7857L1184.65 91.15ZM1186.4 119.5L1185.52 119.032L1185.51 119.042L1185.51 119.053L1186.4 119.5ZM1179.05 128.95L1178.52 129.798L1179.14 130.185L1179.7 129.713L1179.05 128.95ZM1170.65 125.45L1170.3 126.386L1170.33 126.396L1170.35 126.404L1170.65 125.45ZM1158.4 121.95L1158.15 122.917L1158.17 122.923L1158.19 122.929L1158.4 121.95ZM1144.75 119.15L1144.59 120.138L1144.6 120.139L1144.75 119.15ZM1114.65 120.9L1115.01 121.832L1115.03 121.823L1115.06 121.814L1114.65 120.9ZM1111.85 135.25L1111.28 136.069L1111.28 136.069L1111.85 135.25ZM1125.15 139.8L1125.37 138.824L1125.36 138.822L1125.15 139.8ZM1136 142.25L1136.22 141.275L1136.22 141.275L1136 142.25ZM1183.6 163.6L1182.9 164.316L1182.91 164.325L1182.92 164.333L1183.6 163.6ZM1196.95 198.25C1196.95 215.693 1190.43 229.271 1177.4 239.102L1178.6 240.698C1192.17 230.462 1198.95 216.274 1198.95 198.25H1196.95ZM1177.4 239.102C1164.34 248.949 1145 253.95 1119.2 253.95V255.95C1145.2 255.95 1165.06 250.917 1178.6 240.698L1177.4 239.102ZM1119.2 253.95C1109.45 253.95 1100.4 253.253 1092.06 251.864L1091.74 253.836C1100.2 255.247 1109.35 255.95 1119.2 255.95V253.95ZM1092.06 251.864C1083.73 250.474 1076.59 248.396 1070.62 245.642L1069.78 247.458C1075.95 250.304 1083.27 252.426 1091.74 253.836L1092.06 251.864ZM1070.66 245.663C1064.93 242.684 1060.38 239.036 1056.98 234.73L1055.42 235.97C1059.02 240.531 1063.8 244.349 1069.74 247.437L1070.66 245.663ZM1057.01 234.757C1053.88 230.513 1052.3 225.476 1052.3 219.6H1050.3C1050.3 225.857 1051.99 231.32 1055.39 235.943L1057.01 234.757ZM1052.3 219.6C1052.3 214.137 1053.44 209.666 1055.65 206.13L1053.95 205.07C1051.5 209 1050.3 213.863 1050.3 219.6H1052.3ZM1055.66 206.107C1057.94 202.236 1060.66 199.068 1063.82 196.586L1062.58 195.014C1059.21 197.665 1056.33 201.03 1053.94 205.093L1055.66 206.107ZM1062.72 196.676C1069.54 200.44 1077.29 203.845 1085.97 206.893L1086.63 205.007C1078.04 201.988 1070.39 198.627 1063.68 194.924L1062.72 196.676ZM1086 206.904C1094.98 209.74 1105.24 211.15 1116.75 211.15V209.15C1105.4 209.15 1095.35 207.76 1086.6 204.996L1086 206.904ZM1116.75 211.15C1124.05 211.15 1129.74 210.095 1133.69 207.872L1132.71 206.128C1129.2 208.105 1123.92 209.15 1116.75 209.15V211.15ZM1133.67 207.884C1137.85 205.668 1140.15 202.579 1140.15 198.6H1138.15C1138.15 201.621 1136.48 204.132 1132.73 206.116L1133.67 207.884ZM1140.15 198.6C1140.15 194.987 1138.57 192.113 1135.5 190.068L1134.4 191.732C1136.93 193.42 1138.15 195.68 1138.15 198.6H1140.15ZM1135.5 190.068C1132.53 188.082 1127.69 186.537 1121.13 185.366L1120.77 187.334C1127.28 188.496 1131.77 189.985 1134.4 191.732L1135.5 190.068ZM1121.15 185.369L1110.65 183.269L1110.25 185.231L1120.75 187.331L1121.15 185.369ZM1110.64 183.269C1090.42 179.317 1075.44 173.179 1065.59 164.933L1064.31 166.467C1074.53 175.021 1089.88 181.249 1110.26 185.231L1110.64 183.269ZM1065.61 164.95C1056.07 156.546 1051.25 144.597 1051.25 128.95H1049.25C1049.25 145.037 1054.23 157.587 1064.29 166.45L1065.61 164.95ZM1051.25 128.95C1051.25 120.466 1053.08 112.813 1056.73 105.971L1054.97 105.029C1051.15 112.187 1049.25 120.167 1049.25 128.95H1051.25ZM1056.73 105.971C1060.39 99.1167 1065.53 93.4025 1072.17 88.8232L1071.03 87.1768C1064.14 91.9308 1058.78 97.8832 1054.97 105.029L1056.73 105.971ZM1072.17 88.8232C1078.83 84.2303 1086.77 80.6563 1096.02 78.1142L1095.48 76.1858C1086.06 78.777 1077.91 82.4363 1071.03 87.1768L1072.17 88.8232ZM1096.01 78.1158C1105.48 75.575 1115.89 74.3 1127.25 74.3V72.3C1115.74 72.3 1105.15 73.5916 1095.49 76.1841L1096.01 78.1158ZM1127.25 74.3C1135.83 74.3 1143.82 74.9957 1151.22 76.3829L1151.58 74.4171C1144.05 73.0043 1135.94 72.3 1127.25 72.3V74.3ZM1151.25 76.3887C1158.88 77.5449 1165.44 79.3899 1170.93 81.9091L1171.77 80.0909C1166.06 77.4767 1159.32 75.5884 1151.55 74.4113L1151.25 76.3887ZM1170.93 81.9091C1176.41 84.4193 1180.71 87.7095 1183.86 91.7639L1185.44 90.536C1182.06 86.1905 1177.49 82.714 1171.77 80.0909L1170.93 81.9091ZM1183.88 91.7857C1186.98 95.5568 1188.55 100.11 1188.55 105.5H1190.55C1190.55 99.6904 1188.85 94.6765 1185.42 90.5143L1183.88 91.7857ZM1188.55 105.5C1188.55 110.735 1187.53 115.235 1185.52 119.032L1187.28 119.968C1189.47 115.831 1190.55 110.998 1190.55 105.5H1188.55ZM1185.51 119.053C1183.7 122.671 1181.33 125.712 1178.4 128.187L1179.7 129.713C1182.84 127.055 1185.37 123.795 1187.29 119.947L1185.51 119.053ZM1179.58 128.102C1177.61 126.868 1174.71 125.671 1170.95 124.496L1170.35 126.404C1174.06 127.562 1176.76 128.699 1178.52 129.798L1179.58 128.102ZM1171 124.514C1167.21 123.094 1163.08 121.914 1158.61 120.971L1158.19 122.929C1162.58 123.853 1166.62 125.006 1170.3 126.386L1171 124.514ZM1158.65 120.983C1154.19 119.807 1149.6 118.866 1144.9 118.161L1144.6 120.139C1149.23 120.834 1153.75 121.76 1158.15 122.917L1158.65 120.983ZM1144.91 118.162C1140.43 117.456 1136.29 117.1 1132.5 117.1V119.1C1136.17 119.1 1140.2 119.444 1144.59 120.138L1144.91 118.162ZM1132.5 117.1C1124.74 117.1 1118.63 118.037 1114.24 119.986L1115.06 121.814C1119.07 120.03 1124.86 119.1 1132.5 119.1V117.1ZM1114.29 119.968C1112.07 120.829 1110.33 121.999 1109.14 123.521C1107.94 125.056 1107.35 126.883 1107.35 128.95H1109.35C1109.35 127.284 1109.81 125.902 1110.71 124.754C1111.62 123.592 1113.03 122.604 1115.01 121.832L1114.29 119.968ZM1107.35 128.95C1107.35 131.883 1108.71 134.273 1111.28 136.069L1112.42 134.431C1110.32 132.961 1109.35 131.151 1109.35 128.95H1107.35ZM1111.28 136.069C1113.79 137.83 1118.41 139.378 1124.94 140.778L1125.36 138.822C1118.83 137.422 1114.57 135.937 1112.42 134.431L1111.28 136.069ZM1124.93 140.775L1135.78 143.225L1136.22 141.275L1125.37 138.825L1124.93 140.775ZM1135.78 143.225C1158.12 148.344 1173.77 155.409 1182.9 164.316L1184.3 162.884C1174.77 153.591 1158.68 146.422 1136.22 141.275L1135.78 143.225ZM1182.92 164.333C1192.26 172.992 1196.95 184.267 1196.95 198.25H1198.95C1198.95 183.767 1194.07 171.941 1184.28 162.867L1182.92 164.333Z" fill="#8C8C8C" mask="url(#path-1-outside-1_23_60)"/>
</svg>
